<svg width="8" height="8" viewBox="0 0 8 8" fill="none" xmlns="http://www.w3.org/2000/svg">
<g clip-path="url(#clip0_536_2)">
<path d="M2.33325 4.00001C2.33325 4.44204 2.50885 4.86596 2.82141 5.17852C3.13397 5.49108 3.55789 5.66668 3.99992 5.66668V2.33334C3.55789 2.33334 3.13397 2.50894 2.82141 2.8215C2.50885 3.13406 2.33325 3.55798 2.33325 4.00001Z" fill="#504B38"/>
<path d="M3.99992 0.333336C3.27472 0.333336 2.56581 0.548382 1.96283 0.951281C1.35985 1.35418 0.889883 1.92683 0.612362 2.59683C0.334841 3.26683 0.262228 4.00407 0.403708 4.71533C0.545187 5.4266 0.894403 6.07994 1.4072 6.59273C1.91999 7.10552 2.57333 7.45474 3.28459 7.59622C3.99585 7.73769 4.7331 7.66508 5.40309 7.38756C6.07309 7.11004 6.64574 6.64007 7.04864 6.03709C7.45154 5.43411 7.66659 4.7252 7.66659 4C7.66879 3.51787 7.57546 3.04008 7.39197 2.59422C7.20849 2.14837 6.93849 1.74328 6.59757 1.40236C6.25664 1.06144 5.85156 0.791436 5.4057 0.60795C4.95984 0.424464 4.48205 0.331129 3.99992 0.333336ZM0.99992 4C1.0043 3.2057 1.32177 2.44518 1.88344 1.88352C2.4451 1.32185 3.20562 1.00438 3.99992 1V2.33334C4.44195 2.33334 4.86587 2.50893 5.17843 2.82149C5.49099 3.13405 5.66659 3.55798 5.66659 4C5.66659 4.44203 5.49099 4.86595 5.17843 5.17851C4.86587 5.49108 4.44195 5.66667 3.99992 5.66667V7C3.20562 6.99563 2.4451 6.67815 1.88344 6.11649C1.32177 5.55482 1.0043 4.7943 0.99992 4Z" fill="#504B38"/>
</g>
<defs>
<clipPath id="clip0_536_2">
<rect width="8" height="8" fill="white"/>
</clipPath>
</defs>
</svg>
